<svg class="header__logo | logo logo--e6k" width="53" height="22" viewBox="0 0 53 22" fill="currentColor" aria-hidden="true">
    <path d="M0 20.4629H16.3704V17.1125H3.54639V3.99076H16.3704V0.738525H0V20.4629Z"></path>
    <path d="M24.6646 17.5833C22.5028 17.5833 20.724 15.8928 20.724 13.8198C20.724 11.7469 22.5028 10.0559 24.6646 10.0559C26.7967 10.0559 28.5759 11.7469 28.5759 13.8198C28.5759 15.8928 26.7967 17.5833 24.6646 17.5833ZM24.6646 6.83669H24.2092L28.6936 0.000244141H24.4293L18.1943 10.2327C17.4741 11.291 17.077 12.5257 17.077 13.9082C17.077 17.8772 20.4446 21.0677 24.6354 21.0677C29.0313 21.0677 32.2224 17.6425 32.2224 13.7901C32.2224 9.7472 28.7966 6.83669 24.6646 6.83669Z"></path>
    <path d="M47.8392 0L37.7225 10.8355V0H33.988V20.7739H37.7225V15.3784L41.9425 11.0119L48.3534 20.7739H53L44.5304 8.51229L52.8387 0H47.8392Z"></path>
    <path d="M14.9087 8.80127H6.98584V12.2659H14.9087V8.80127Z"></path>
</svg>