<svg version="1.2" xmlns="http://www.w3.org/2000/svg" viewBox="0 0 2480 573" width="2480" height="573">
	<title>Ucl</title>
	<style>
		.s0 { fill: #5db2e5 } 
		.s1 { fill: #1e325c } 
		.s2 { fill: #ffffff } 
		.s3 { fill: #9cb7d4 } 
	</style>
	<g id="Background">
		<path id="Path 0" class="s0" d="m163 327.5v164.5h247v-82h-165v-247h-82z"/>
		<path id="Path 1" class="s1" d="m245 286.5v123.5h165v-247h-165z"/>
		<path id="Path 2" fill-rule="evenodd" class="s2" d="m939 156.5c9.9 0.2 19.3 1 23.5 2 3.9 0.9 10.9 2.9 15.8 4.5 4.8 1.7 11.5 4.4 14.9 6.1 3.5 1.7 9.9 5.5 14.3 8.3 4.4 2.9 10.9 8 21 17.5l-35.3 35.6-6-5c-3.3-2.8-8.5-6.5-11.4-8.3-2.9-1.7-9.1-4.5-13.8-6.2-4.7-1.6-12.1-3.5-16.5-4.1-4.4-0.6-11.4-0.8-15.5-0.5-4.1 0.3-10.4 1.3-14 2.2-3.6 0.9-9.9 3.2-14 5.1-4.1 1.9-10.2 5.4-13.5 7.8-3.3 2.3-8.5 6.9-11.6 10.1-3 3.3-6.9 7.9-8.6 10.4-1.6 2.5-4 6.4-5.2 8.8-1.1 2.3-3.2 7.5-4.5 11.4-1.4 4-3 11.2-3.5 16-0.8 6.2-0.8 11.4-0.1 17.5 0.6 4.9 2.3 12.4 3.8 16.8 1.5 4.4 4.7 11.4 7.2 15.5 2.4 4.1 7.2 10.4 10.5 13.9 3.3 3.5 8.7 8.3 12 10.6 3.3 2.4 8.4 5.4 11.2 6.9 2.9 1.4 9.2 3.8 14 5.2 7.3 2.2 10.8 2.7 20.8 2.7 8 0 14.3-0.5 18.7-1.6 3.8-0.9 9.6-2.9 13-4.3 3.5-1.5 8.8-4.2 11.8-6.2 3-1.9 7.7-5.3 15.1-11.7l35.4 35.6-6.5 6.1c-3.6 3.3-9.9 8.2-14 11-4.1 2.8-11.1 6.7-15.5 8.8-4.4 2.2-11.4 5-15.5 6.4-4.1 1.3-11.1 3.2-15.5 4.1-4.4 0.9-13.9 1.9-21 2.2-9.4 0.4-16.2 0.1-24.5-1.1-6.3-1-16.2-3.3-22-5.2-5.8-2-14.5-5.6-19.5-8.2-5-2.6-12.4-7.2-16.5-10.3-4.1-3-10-7.8-13-10.6-3-2.7-8.3-8.6-11.7-12.9-3.5-4.3-8.1-10.8-10.3-14.4-2.2-3.6-5.9-10.8-8.1-16-2.3-5.2-5.3-13.8-6.6-19-1.3-5.2-2.8-13.6-3.4-18.5-0.7-5.1-0.9-14.2-0.5-21 0.3-6.9 1.6-16.5 3-22.5 1.3-5.8 3.6-13.7 5.1-17.5 1.4-3.8 4.5-10.6 6.8-15 2.3-4.4 7.4-12.3 11.3-17.5 3.9-5.2 10.7-12.8 15-16.8 4.3-4.1 11.5-9.8 15.9-12.7 4.4-2.9 11.6-7.1 16-9.3 4.4-2.2 12.5-5.4 18-7.2 5.5-1.7 13.8-3.8 18.5-4.5 5.8-1 13.7-1.3 25-1zm1148.5 0.9c3.3 0.2 8 1.2 10.5 2.3 2.5 1 6.4 3.9 8.8 6.3 2.5 2.6 5.1 6.7 6.3 9.7 1 2.9 1.9 7.5 1.9 10.3 0 2.7-0.9 7.4-2 10.2-1.1 3.2-3.7 7-6.2 9.5-2.4 2.3-6.6 5.2-9.3 6.4-3.5 1.5-7 2.2-11.5 2.2q-6.5 0-11-2c-2.5-1.1-6-3.3-7.9-4.9-1.8-1.6-4.5-4.9-6-7.4-2.3-4-2.6-5.6-2.6-14 0-7.1 0.4-10.3 1.7-12.8 1-1.7 3.3-4.8 5-6.8 1.8-2 5.1-4.6 7.3-5.7 2.2-1.1 5.1-2.4 6.5-2.8 1.4-0.5 5.2-0.7 8.5-0.5zm-1514.6 5.6h50.1v81.3c0 52.4 0.4 82.8 1.1 85.7 0.6 2.5 2.5 7.4 4.2 10.9 1.8 3.6 5.7 9 8.7 12.1 3.3 3.3 8.3 7 12.5 9.1 4.2 2.2 10 4.1 14.5 4.9 5.8 0.9 9.1 1 14.3 0.1 3.7-0.6 9.5-2.4 13-3.9 3.7-1.7 8.8-5.3 12.7-8.9 3.7-3.5 7.9-8.5 9.7-11.9 1.7-3.2 3.9-8.8 4.7-12.4 1.4-5.6 1.6-17.9 1.6-167h49.8l-0.3 173.5-2.3 8c-1.3 4.4-4 11.6-6.1 16-2 4.4-5.7 10.9-8.1 14.5-2.4 3.6-7.8 9.9-11.9 14.1-4.2 4.1-10.3 9.4-13.6 11.6-3.3 2.2-8.7 5.4-12 7-3.3 1.7-9.6 4.2-14 5.6-4.4 1.4-11.8 3.1-16.5 3.7-4.9 0.8-12.9 1.1-19 0.7-5.8-0.2-14.3-1.5-19-2.7-4.7-1.2-12.8-4.2-18-6.6-5.2-2.5-12.2-6.5-15.5-8.9-3.3-2.3-9.2-7.6-13.1-11.6-3.9-4.1-9-10.3-11.4-13.9-2.4-3.6-5.8-9.6-7.6-13.5-1.8-3.9-4.3-10.6-7.9-23zm489.1 0h50v197h105v50h-155zm269.5 65.4c12.8 0.3 16.3 0.7 24 3 4.9 1.5 12.6 4.5 17 6.7 4.4 2.2 11.3 6.6 15.4 9.7 4.1 3.1 9.8 8.4 12.7 11.7 2.9 3.3 7.4 9.6 10.1 14 2.6 4.4 6.3 12.3 8 17.5 1.7 5.2 3.7 13.8 4.3 19 0.7 5.3 0.9 12.8 0.5 17-0.4 4.1-1.3 10.4-2.2 14-0.8 3.6-2.8 9.9-4.5 14-1.6 4.1-5.4 11.1-8.3 15.5-2.9 4.4-8.3 11.1-12.1 14.8-3.8 3.8-9.8 8.8-13.4 11.2-3.6 2.3-8.8 5.4-11.5 6.8-2.8 1.3-8.6 3.6-13 5-4.4 1.4-11.8 3.1-16.5 3.8-5.3 0.7-12.6 1-19 0.6-5.8-0.4-13.3-1.3-16.8-2.2-3.4-0.8-9.7-2.8-14-4.5-4.2-1.6-11.3-5.2-15.7-8.1-4.4-2.9-11.1-8.2-14.9-11.8-3.8-3.6-8.8-9.3-11.2-12.6-2.3-3.3-6.1-9.8-8.3-14.5-2.2-4.7-5-12.6-6.2-17.5-1.7-6.9-2.2-12-2.1-21.5 0-9.9 0.5-14.5 2.5-22 1.3-5.2 3.9-12.6 5.8-16.5 1.9-3.9 5.2-9.7 7.4-13 2.2-3.3 7-9 10.7-12.7 3.7-3.7 9.4-8.5 12.5-10.7 3.2-2.1 8.9-5.4 12.8-7.4 3.8-1.9 10.1-4.4 14-5.6 3.8-1.2 9.2-2.6 12-3.1 2.7-0.5 11.7-0.7 20-0.6zm-24 51.8c-2.8 1.4-7 4.4-9.5 6.5-2.5 2.2-6.1 6.4-8 9.4-1.9 3-4.3 8-5.2 11.1-1.1 3.4-1.8 8.9-1.8 13.3 0 5 0.7 9.6 2.1 13.7 1.1 3.5 3.7 8.7 5.7 11.7 2 3 5.9 7.3 8.7 9.4 2.7 2.2 7.2 5 10 6.3 2.7 1.3 8.1 2.9 12 3.5 5.3 1 8.6 1 14 0.1 3.8-0.6 9.7-2.5 13-4.1 3.3-1.6 8-4.7 10.5-6.9 2.5-2.1 5.9-6.1 7.7-8.8 1.7-2.7 4.1-7.6 5.3-10.9 1.4-4.1 2.1-8.5 2.1-14 0-5.6-0.6-9.8-2.1-14-1.1-3.3-3.5-8.2-5.3-10.9-1.8-2.7-5.3-6.8-7.8-9-2.5-2.3-7-5.3-10-6.8-3-1.4-7.4-3.1-9.9-3.7-2.5-0.6-7.4-1-11-1-3.6 0-8.5 0.6-11 1.3-2.5 0.7-6.8 2.4-9.5 3.8zm612-51.8c10.2 0.2 14.3 0.7 19.5 2.5 3.6 1.2 9.4 3.9 13 6 3.6 2.1 9.3 6.6 19 16.1v-24h48v180h-48v-21.5l-3.8 4.1c-2 2.3-5.7 5.8-8.2 7.7-2.5 2-7.9 5.2-12 7.1-4.1 2-10.7 4.3-14.5 5.1-3.9 0.8-10.5 1.5-14.8 1.5-4.2 0-11-0.6-15-1.4-4-0.8-10.6-2.7-14.7-4.3-4.1-1.6-10.2-4.6-13.5-6.8-3.3-2.1-9.2-7.1-13-11-3.9-3.9-8.8-10.2-11-14-2.2-3.8-5.2-9.6-6.6-12.9-1.5-3.4-3.7-10.2-5-15.1-2.2-8-2.4-11-2.4-27.5 0.1-16.8 0.4-19.4 2.8-28.5 1.5-5.5 4.5-13.6 6.6-18 2.2-4.4 6.1-10.9 8.8-14.5 2.7-3.6 7.5-8.8 10.5-11.5 3.1-2.8 8-6.5 11-8.2 2.9-1.8 8.2-4.5 11.8-5.9 3.6-1.5 9.2-3.3 12.5-4 3.8-0.9 10.6-1.2 19-1zm-9.5 51.1c-2.8 1.4-7 4.5-9.5 7-2.6 2.5-6 7.7-8 11.7-2.1 4.5-3.8 10-4.4 14.3-0.6 4.2-0.6 9.8-0.1 14 0.5 3.9 1.6 9 2.5 11.5 0.9 2.5 2.6 6.3 3.9 8.5 1.3 2.2 4.4 5.9 6.7 8.2 2.4 2.3 6.9 5.4 9.9 6.9 3 1.5 8.4 3.1 12 3.7 4.7 0.8 8.4 0.7 13.2-0.1 3.7-0.7 9.1-2.4 12-3.9 2.9-1.4 7.3-4.7 9.8-7.2 2.5-2.5 5.8-7.1 7.3-10.1 1.5-3 3.4-9.1 4.3-13.5 1.4-6.8 1.5-9.4 0.6-17-0.9-6.6-2.1-10.8-4.6-16-2.4-4.9-5.2-8.6-9.3-12.3-3.5-3.2-8-6.2-11.3-7.4-3.6-1.4-8.5-2.2-14-2.4-4.7-0.2-10.2 0.1-12.3 0.6-2 0.6-6 2.1-8.7 3.5zm343-51.4c6.5 0 14.5 0.6 18.5 1.4 3.8 0.8 9.9 2.9 13.5 4.6 3.8 1.8 8.9 5.4 12.3 8.8 3.5 3.4 7.2 8.4 9.4 12.6 2 3.9 4.6 11.1 5.8 16 1.3 4.9 2.8 14.2 3.4 20.5 0.6 6.6 1.1 34.1 1.1 117h-49v-51.3c-0.1-28.6-0.5-54.3-1.1-58.2-0.5-3.9-2-9.3-3.4-12-1.4-3-3.9-6.1-6.2-7.7-2.1-1.5-6.1-3.2-8.8-3.9-2.8-0.7-8.5-1-13-0.7-5.9 0.3-9.5 1.1-13.8 3.1-3.1 1.5-7.9 4.9-10.5 7.5-2.6 2.7-5.8 7.1-7.1 9.8-1.4 2.7-3.1 7.1-4 9.9-1.2 4.1-1.5 14.1-2.1 103.5h-48v-180h48v24.5l2.8-3.5c1.6-1.9 5.7-5.7 9.3-8.4 3.5-2.7 8.6-5.9 11.4-7.2 2.7-1.3 8.4-3.2 12.5-4.3 5.3-1.4 10.8-2 19-2zm-803.1 0.9h49.1v51.7c0 31.8 0.4 54.3 1.1 58.3 0.5 3.6 2 8.7 3.2 11.4 1.2 2.7 4 6.5 6.2 8.6 2.2 2 5.8 4.3 8 5.1 2.3 0.8 7.7 1.4 13 1.4 5.8 0 10.7-0.6 14-1.7 2.9-1 7.2-3.7 10.3-6.5 3.6-3.2 6.3-6.8 8.2-10.8 1.5-3.3 3.3-8.4 3.9-11.3 0.7-3.4 1.1-22.7 1.1-106.2h49v180h-49l0.1-20.5-7.1 6.7c-5 4.8-9.4 8-15.3 10.8-4.5 2.2-11.8 4.7-16.2 5.6-5.9 1.2-10.8 1.5-18.5 1.1-7.3-0.4-13-1.3-18.5-3.1-4.9-1.6-10.7-4.4-14.9-7.3-4.3-3-8.7-7.2-11.8-11.3-2.6-3.6-6.2-9.9-8-14-1.7-4.1-4-11.6-5.1-16.5-1.9-8.4-2.1-13-2.5-70.3zm190.2 0h24.5c22.4 0 24.5 0.2 25 1.8 0.4 1 7.3 19.3 15.4 40.7 8.2 21.5 17.1 46 19.9 54.5 2.8 8.6 6.2 19.4 7.5 24 2.3 8.1 2.5 8.4 3.6 5.8 0.6-1.5 1.1-3.1 1-3.5 0-0.4 3-9.8 6.5-20.8 3.6-11 13.5-38.4 37.4-102l49.2-0.5-1.7 4.3c-1 2.3-16.9 42.7-69.2 175.3l-48.5-0.1-33.8-86c-18.6-47.3-34.5-87.6-35.3-89.7zm421.9 0h48v180h-48z"/>
		<path id="Path 3" class="s3" d="m410 286.5v123.5h82v-247h-82z"/>
	</g>
</svg>